<?xml version="1.0" encoding="UTF-8"?>
<!DOCTYPE svg PUBLIC "-//W3C//DTD SVG 1.1//EN" "http://www.w3.org/Graphics/SVG/1.1/DTD/svg11.dtd">
<svg xmlns="http://www.w3.org/2000/svg" version="1.1" width="322px" height="456px" style="shape-rendering:geometricPrecision; text-rendering:geometricPrecision; image-rendering:optimizeQuality; fill-rule:evenodd; clip-rule:evenodd" xmlns:xlink="http://www.w3.org/1999/xlink">
<g><path style="opacity:1" fill="#a95d3a" d="M -0.5,-0.5 C 106.833,-0.5 214.167,-0.5 321.5,-0.5C 321.5,151.5 321.5,303.5 321.5,455.5C 214.167,455.5 106.833,455.5 -0.5,455.5C -0.5,303.5 -0.5,151.5 -0.5,-0.5 Z"/></g>
<g><path style="opacity:1" fill="#f8f9eb" d="M 25.5,25.5 C 115.5,25.5 205.5,25.5 295.5,25.5C 295.5,160.167 295.5,294.833 295.5,429.5C 205.5,429.5 115.5,429.5 25.5,429.5C 25.5,294.833 25.5,160.167 25.5,25.5 Z"/></g>
<g><path style="opacity:1" fill="#f7f3e2" d="M 26.5,27.5 C 115.833,27.5 205.167,27.5 294.5,27.5C 294.5,161.167 294.5,294.833 294.5,428.5C 205.167,428.5 115.833,428.5 26.5,428.5C 26.5,294.833 26.5,161.167 26.5,27.5 Z"/></g>
<g><path style="opacity:1" fill="#047659" d="M 188.5,59.5 C 213.167,59.5 237.833,59.5 262.5,59.5C 262.5,86.5 262.5,113.5 262.5,140.5C 261.508,140.328 260.842,140.662 260.5,141.5C 193.5,162.167 126.5,182.833 59.5,203.5C 59.5,194.167 59.5,184.833 59.5,175.5C 102.73,137.058 145.73,98.3913 188.5,59.5 Z"/></g>
<g><path style="opacity:1" fill="#fdfefd" d="M 197.5,72.5 C 218.931,69.7914 233.431,78.4581 241,98.5C 243.477,128.019 229.977,142.852 200.5,143C 177.497,136.324 167.997,121.157 172,97.5C 176.452,84.88 184.952,76.5467 197.5,72.5 Z"/></g>
<g><path style="opacity:1" fill="#ee4122" d="M 120.5,59.5 C 143.167,59.5 165.833,59.5 188.5,59.5C 145.73,98.3913 102.73,137.058 59.5,175.5C 59.5,154.5 59.5,133.5 59.5,112.5C 79.563,94.431 99.8964,76.7644 120.5,59.5 Z"/></g>
<g><path style="opacity:1" fill="#077558" d="M 120.5,59.5 C 99.8964,76.7644 79.563,94.431 59.5,112.5C 59.5,94.8333 59.5,77.1667 59.5,59.5C 79.8333,59.5 100.167,59.5 120.5,59.5 Z"/></g>
<g><path style="opacity:1" fill="#ef4123" d="M 260.5,141.5 C 261.498,174.662 261.832,207.996 261.5,241.5C 194.291,252.145 126.958,262.812 59.5,273.5C 59.5,250.167 59.5,226.833 59.5,203.5C 126.5,182.833 193.5,162.167 260.5,141.5 Z"/></g>
<g><path style="opacity:1" fill="#f06245" d="M 260.5,141.5 C 260.842,140.662 261.508,140.328 262.5,140.5C 262.5,174.167 262.5,207.833 262.5,241.5C 262.167,241.5 261.833,241.5 261.5,241.5C 261.832,207.996 261.498,174.662 260.5,141.5 Z"/></g>
<g><path style="opacity:1" fill="#057659" d="M 261.5,241.5 C 261.833,241.5 262.167,241.5 262.5,241.5C 262.5,260.833 262.5,280.167 262.5,299.5C 261.508,299.328 260.842,299.662 260.5,300.5C 193.488,325.17 126.488,349.837 59.5,374.5C 59.5,340.833 59.5,307.167 59.5,273.5C 126.958,262.812 194.291,252.145 261.5,241.5 Z"/></g>
<g><path style="opacity:1" fill="#fbfcfc" d="M 178.5,280.5 C 187.367,278.76 192.701,282.26 194.5,291C 191.246,301.883 184.746,304.383 175,298.5C 170.943,291.372 172.109,285.372 178.5,280.5 Z"/></g>
<g><path style="opacity:1" fill="#fcfdfd" d="M 95.5,280.5 C 115.238,280.077 126.571,289.577 129.5,309C 127.743,326.59 118.076,336.424 100.5,338.5C 77.077,334.329 68.2437,320.663 74,297.5C 78.7462,288.568 85.9129,282.901 95.5,280.5 Z"/></g>
<g><path style="opacity:1" fill="#ef4122" d="M 260.5,300.5 C 261.497,318.326 261.83,336.326 261.5,354.5C 230.829,368.169 200.162,381.836 169.5,395.5C 132.833,395.5 96.1667,395.5 59.5,395.5C 59.5,388.833 59.5,382.167 59.5,375.5C 59.5,375.167 59.5,374.833 59.5,374.5C 126.488,349.837 193.488,325.17 260.5,300.5 Z"/></g>
<g><path style="opacity:1" fill="#ee6345" d="M 260.5,300.5 C 260.842,299.662 261.508,299.328 262.5,299.5C 262.5,317.833 262.5,336.167 262.5,354.5C 262.167,354.5 261.833,354.5 261.5,354.5C 261.83,336.326 261.497,318.326 260.5,300.5 Z"/></g>
<g><path style="opacity:1" fill="#11775b" d="M 261.5,354.5 C 261.833,354.5 262.167,354.5 262.5,354.5C 262.5,368.5 262.5,382.5 262.5,396.5C 231.5,396.5 200.5,396.5 169.5,396.5C 169.5,396.167 169.5,395.833 169.5,395.5C 200.162,381.836 230.829,368.169 261.5,354.5 Z"/></g>
<g><path style="opacity:1" fill="#f3957a" d="M 59.5,375.5 C 59.5,382.167 59.5,388.833 59.5,395.5C 96.1667,395.5 132.833,395.5 169.5,395.5C 169.5,395.833 169.5,396.167 169.5,396.5C 132.5,396.5 95.5,396.5 58.5,396.5C 58.1755,389.313 58.5088,382.313 59.5,375.5 Z"/></g>
</svg>
