<svg xmlns="http://www.w3.org/2000/svg" viewBox="0 0 113.79 189.2"><defs><style>.cls-1{fill:#d01601;}.cls-2{fill:#fbac03;}</style></defs><g id="Слой_2" data-name="Слой 2"><g id="Layer_1" data-name="Layer 1"><path class="cls-1" d="M34.35,1.81a82.12,82.12,0,0,1,38.55,1l-1.41,77a9.67,9.67,0,0,0,2.43,8.24L111.58,130a17.29,17.29,0,0,1-24.51,23L46.22,118.49A36.44,36.44,0,0,1,33.07,88.88C33.21,72.38,33.49,41.58,34.35,1.81Z"/><path class="cls-2" d="M34.18,10c0,1.84-.08,3.66-.11,5.46a70.08,70.08,0,0,1,38.6.15l.09-5.18A66.08,66.08,0,0,0,34.18,10Z"/><path class="cls-2" d="M111.58,130l-1.12-1.25c-3.37,3.84-7.17,7.84-11.43,11.89-4.51,4.29-8.93,8-13.13,11.35l1.17,1a17.29,17.29,0,0,0,24.51-23Z"/><path class="cls-2" d="M45.92,98.41c-2.71-5-8.08-10.35-12.84-11.35,0,.62,0,1.23,0,1.82a36.44,36.44,0,0,0,13.15,29.61l1,.88C48.85,114.23,50.13,106.07,45.92,98.41Z"/><path class="cls-2" d="M33.93,22.76c0,1.8-.07,3.56-.1,5.3a98.38,98.38,0,0,1,38.6.28c0-1.73.07-3.45.1-5.18a106.66,106.66,0,0,0-38.6-.4Z"/><path class="cls-2" d="M67.3,35.5a3.83,3.83,0,1,1-3.83-3.83A3.84,3.84,0,0,1,67.3,35.5Z"/><circle class="cls-2" cx="44.19" cy="42.7" r="3.83"/><path class="cls-2" d="M63.47,57.32a3.83,3.83,0,1,1-3.83-3.83A3.83,3.83,0,0,1,63.47,57.32Z"/><path class="cls-2" d="M41.49,62.17a3.83,3.83,0,1,1-3.83-3.83A3.82,3.82,0,0,1,41.49,62.17Z"/><path class="cls-2" d="M51.85,77.88A3.83,3.83,0,1,1,48,74.05,3.83,3.83,0,0,1,51.85,77.88Z"/><path class="cls-2" d="M67.3,96.51a3.83,3.83,0,1,1-3.83-3.83A3.83,3.83,0,0,1,67.3,96.51Z"/><path class="cls-2" d="M61.07,115.15a3.83,3.83,0,1,1-3.83-3.83A3.82,3.82,0,0,1,61.07,115.15Z"/><path class="cls-2" d="M84.79,119.37A3.83,3.83,0,1,1,81,115.54,3.83,3.83,0,0,1,84.79,119.37Z"/><path class="cls-2" d="M102,119.36a3.82,3.82,0,1,0,4.34,6.16,3.66,3.66,0,0,0,.55-.71Z"/><path class="cls-2" d="M87.83,103.54l-5-5.58a3.82,3.82,0,1,0,5,5.58Z"/><path class="cls-2" d="M70.49,77.87a3.59,3.59,0,0,0,1-.17c0-2.43.09-4.86.14-7.29a3.89,3.89,0,0,0-1.18-.2,3.83,3.83,0,0,0,0,7.66Z"/><path class="cls-2" d="M72,51.28q.08-3.77.14-7.52A3.82,3.82,0,0,0,72,51.28Z"/><path class="cls-2" d="M33.73,34c0,2-.06,4-.09,5.95A3.79,3.79,0,0,0,33.73,34Z"/><path class="cls-2" d="M81,141.7a3.82,3.82,0,0,0-3.72,3l5.2,4.4A3.83,3.83,0,0,0,81,141.7Z"/><path class="cls-2" d="M68.29,137.11a3.82,3.82,0,1,0-5.3-4.47Z"/><path class="cls-1" d="M1.28,35.26a82.11,82.11,0,0,1,38.55,1q-.69,38.49-1.4,77a9.63,9.63,0,0,0,.13,3.95,9.74,9.74,0,0,0,2.3,4.28l37.65,41.94A17.29,17.29,0,0,1,54,186.4L13.15,151.94A38,38,0,0,1,2.94,138.28a38.29,38.29,0,0,1-2.94-16C.14,105.83.42,75,1.28,35.26Z"/><path class="cls-2" d="M1.11,43.4c0,1.84-.07,3.66-.11,5.46A69.95,69.95,0,0,1,39.6,49c0-1.73.06-3.45.1-5.18A66.23,66.23,0,0,0,1.11,43.4Z"/><path class="cls-2" d="M78.51,163.43c-.37-.42-.74-.84-1.12-1.25C74,166,70.23,170,66,174.06c-4.51,4.29-8.93,8.06-13.12,11.36l1.16,1a17.29,17.29,0,0,0,24.51-23Z"/><path class="cls-2" d="M12.86,131.85C10.14,126.91,4.78,121.51,0,120.5c0,.63,0,1.23,0,1.82a38.29,38.29,0,0,0,2.94,16,38,38,0,0,0,10.21,13.66c.35.29.7.58,1,.88C15.79,147.67,17.06,139.51,12.86,131.85Z"/><path class="cls-2" d="M.86,56.21c0,1.79-.06,3.55-.09,5.3a98.39,98.39,0,0,1,38.6.28l.09-5.18a106.07,106.07,0,0,0-38.6-.4Z"/><path class="cls-2" d="M34.23,68.94a3.83,3.83,0,1,1-3.83-3.83A3.82,3.82,0,0,1,34.23,68.94Z"/><path class="cls-2" d="M15,76.15a3.83,3.83,0,1,1-3.83-3.83A3.84,3.84,0,0,1,15,76.15Z"/><path class="cls-2" d="M30.4,90.76a3.83,3.83,0,1,1-3.83-3.82A3.82,3.82,0,0,1,30.4,90.76Z"/><path class="cls-2" d="M8.43,95.62A3.83,3.83,0,1,1,4.6,91.79,3.84,3.84,0,0,1,8.43,95.62Z"/><path class="cls-2" d="M18.79,111.32A3.83,3.83,0,1,1,15,107.49,3.83,3.83,0,0,1,18.79,111.32Z"/><path class="cls-2" d="M34.23,130a3.83,3.83,0,1,1-3.83-3.83A3.83,3.83,0,0,1,34.23,130Z"/><path class="cls-2" d="M28,148.59a3.83,3.83,0,1,1-3.83-3.83A3.83,3.83,0,0,1,28,148.59Z"/><path class="cls-2" d="M51.72,152.82A3.83,3.83,0,1,1,47.89,149,3.83,3.83,0,0,1,51.72,152.82Z"/><path class="cls-2" d="M69,152.81a3.71,3.71,0,0,0-1.08.74A3.83,3.83,0,0,0,73.32,159a4.1,4.1,0,0,0,.55-.71Z"/><path class="cls-2" d="M54.77,137l-5-5.57a3.82,3.82,0,1,0,5,5.57Z"/><path class="cls-2" d="M37.43,111.31a4,4,0,0,0,1-.16c0-2.43.09-4.86.13-7.3a3.78,3.78,0,0,0-1.17-.2,3.83,3.83,0,0,0,0,7.66Z"/><path class="cls-2" d="M39,84.72c0-2.5.09-5,.14-7.52A3.82,3.82,0,0,0,39,84.72Z"/><path class="cls-2" d="M.67,67.47c0,2-.07,4-.1,5.94a3.8,3.8,0,0,0,1.49-3A3.81,3.81,0,0,0,.67,67.47Z"/><path class="cls-2" d="M47.89,175.14a3.83,3.83,0,0,0-3.72,3l5.21,4.39a3.83,3.83,0,0,0-1.49-7.36Z"/><path class="cls-2" d="M35.22,170.56a3.82,3.82,0,1,0-5.3-4.47Z"/></g></g></svg>