<svg xmlns="http://www.w3.org/2000/svg" viewBox="0 0 223.11 270.52"><defs><style>.cls-1{fill:#77451e;}.cls-2{fill:#ef860d;}.cls-3{fill:#faac04;}.cls-4{fill:#f6a100;}</style></defs><g id="Слой_2" data-name="Слой 2"><g id="Layer_1" data-name="Layer 1"><path class="cls-1" d="M161,2.91a1358.13,1358.13,0,0,0-76.66,154q-15.26,36.24-27.45,70.67l7.26,1.39q12.49-33.45,27.36-68.39A1600,1600,0,0,1,167.6,6c1.19-2.15.85-4.53-.34-5.45C165.82-.59,162.58,0,161,2.91Z"/><path class="cls-2" d="M52.61,227.26a7.22,7.22,0,0,1,13.75,4.24A27.76,27.76,0,0,0,60.18,248c0,2.37-.09,8.07,2.74,9.39s7.74-1.78,12.09-8a6.42,6.42,0,0,1,8.41-.93c3.28,2.36,1.52,8.55,1.44,8.81-2.67,9-18.52,17-28.84,11.25-10-5.55-9.17-20.87-9-24.18A35.88,35.88,0,0,1,52.61,227.26Z"/><path class="cls-3" d="M0,69.56a44.78,44.78,0,0,1,44.53-4.75A44.82,44.82,0,0,1,70.78,104a46.1,46.1,0,0,1,76.49,31.79c1.65-1.61,15.69-14.94,35.27-12,16.61,2.48,30.41,15.64,34.52,33.17,18.68-57.53-7.36-119.28-57.75-144.36C103.18-15.35,30,8.73,0,69.56Z"/><path class="cls-4" d="M174.69,21.94a222.08,222.08,0,0,1-5.11,54.68,222.16,222.16,0,0,1-22.24,59.12c1.85-1.8,15.8-14.86,35.2-12,16.61,2.48,30.41,15.64,34.52,33.17C233.73,105.61,214.77,50.94,174.69,21.94Z"/><path class="cls-4" d="M98.28,60.94a483.59,483.59,0,0,1,45.57-54.6C90.41-10.72,27.31,14.18,0,69.56a44.78,44.78,0,0,1,44.53-4.75A44.82,44.82,0,0,1,70.78,104,482.66,482.66,0,0,1,98.28,60.94Z"/><path class="cls-3" d="M118.29,27.6a6.24,6.24,0,1,1-3.14-8.24A6.23,6.23,0,0,1,118.29,27.6Z"/><path class="cls-3" d="M92.33,16a6.24,6.24,0,1,1-3.15-8.25A6.25,6.25,0,0,1,92.33,16Z"/><path class="cls-3" d="M72,34.56a6.24,6.24,0,1,1-3.14-8.24A6.23,6.23,0,0,1,72,34.56Z"/><path class="cls-3" d="M38.27,41.5a6.24,6.24,0,1,1-3.14-8.24A6.23,6.23,0,0,1,38.27,41.5Z"/><path class="cls-3" d="M82.64,68.19A6.24,6.24,0,1,1,79.49,60,6.25,6.25,0,0,1,82.64,68.19Z"/><path class="cls-4" d="M118.83,74.53a6.24,6.24,0,1,1-3.15-8.24A6.24,6.24,0,0,1,118.83,74.53Z"/><path class="cls-4" d="M152.66,15.53a6.24,6.24,0,1,1-7.06,5.29A6.24,6.24,0,0,1,152.66,15.53Z"/><path class="cls-4" d="M163.08,46.37a6.24,6.24,0,1,1-3.15-8.25A6.25,6.25,0,0,1,163.08,46.37Z"/><path class="cls-4" d="M149,93.13a6.24,6.24,0,1,1-3.15-8.25A6.24,6.24,0,0,1,149,93.13Z"/><path class="cls-3" d="M205.46,66.61a6.24,6.24,0,1,1-3.15-8.25A6.24,6.24,0,0,1,205.46,66.61Z"/><path class="cls-3" d="M192.59,95.37a6.24,6.24,0,1,1-3.15-8.24A6.23,6.23,0,0,1,192.59,95.37Z"/><path class="cls-3" d="M212,128.15a6.24,6.24,0,1,1-3.15-8.25A6.25,6.25,0,0,1,212,128.15Z"/></g></g></svg>