<svg xmlns="http://www.w3.org/2000/svg" viewBox="0 0 64 64"><title>donut-doughnut-bakery-dessert</title><g id="flat"><path d="M32,3A29,29,0,1,0,61,32,29,29,0,0,0,32,3Zm0,39A10,10,0,1,1,42,32,10,10,0,0,1,32,42Z" style="fill:#f09e3e"/><circle cx="32" cy="32" r="10" style="fill:none"/><path d="M54.023,13.144c-.914,28.586-24.658,38-40.361,41.32a28.995,28.995,0,0,0,40.361-41.32Z" style="fill:#f09235"/><path d="M56.332,37.094a8.7,8.7,0,0,1,0-10.188,8.62,8.62,0,0,0-7.8-13.667A8.515,8.515,0,0,1,39.8,8.145h0a8.49,8.49,0,0,0-15.606,0h0a8.515,8.515,0,0,1-8.725,5.094,8.62,8.62,0,0,0-7.8,13.667,8.7,8.7,0,0,1,0,10.188h0a8.62,8.62,0,0,0,7.8,13.667A8.515,8.515,0,0,1,24.2,55.855a8.49,8.49,0,0,0,15.606,0,8.515,8.515,0,0,1,8.725-5.094,8.62,8.62,0,0,0,7.8-13.667ZM32,42A10,10,0,1,1,42,32,10,10,0,0,1,32,42Z" style="fill:#bf7341"/><circle cx="32" cy="32" r="10" style="fill:none"/><path d="M56.332,37.094a8.7,8.7,0,0,1,0-10.188,8.546,8.546,0,0,0,.809-8.778c-3.812,22.7-19.66,31.92-34.3,35.575A8.614,8.614,0,0,1,24.2,55.855a8.49,8.49,0,0,0,15.606,0,8.515,8.515,0,0,1,8.725-5.094,8.62,8.62,0,0,0,7.8-13.667Z" style="fill:#b56d3e"/><rect x="29.379" y="11.5" width="4.243" height="2" transform="translate(0.387 25.935) rotate(-45)" style="fill:#965735"/><rect x="37.379" y="16.5" width="4.243" height="2" transform="translate(-0.805 33.056) rotate(-45)" style="fill:#965735"/><rect x="11.5" y="21.379" width="2" height="4.243" transform="translate(-12.956 15.722) rotate(-45)" style="fill:#965735"/><rect x="17.379" y="24.5" width="4.243" height="2" transform="translate(-12.32 21.257) rotate(-45)" style="fill:#965735"/><rect x="13.5" y="35.379" width="2" height="4.243" transform="translate(-22.27 21.237) rotate(-45)" style="fill:#965735"/><rect x="17.379" y="43.5" width="4.243" height="2" transform="translate(-25.755 26.822) rotate(-45)" style="fill:#965735"/><rect x="29.5" y="46.379" width="2" height="4.243" transform="translate(-25.361 35.772) rotate(-45)" style="fill:#965735"/><rect x="38.379" y="45.5" width="4.243" height="2" transform="translate(-21.018 42.257) rotate(-45)" style="fill:#965735"/><rect x="46.5" y="21.379" width="2" height="4.243" transform="translate(-2.705 40.471) rotate(-45)" style="fill:#965735"/><rect x="47.379" y="32.5" width="4.243" height="2" transform="translate(-9.19 44.814) rotate(-45)" style="fill:#965735"/><rect x="22.5" y="15.379" width="2" height="4.243" transform="translate(-5.491 21.743) rotate(-45)" style="fill:#965735"/><rect x="48.379" y="42.5" width="4.243" height="2" transform="translate(-15.968 48.45) rotate(-45)" style="fill:#965735"/></g></svg>