<svg xmlns="http://www.w3.org/2000/svg" viewBox="0 0 128.78 146.8"><defs><style>.cls-1{fill:#f0301e;}.cls-2{fill:#d01601;}.cls-3{fill:#eab893;}.cls-4{fill:#fcddc1;}.cls-5{fill:#fbac03;}.cls-6{fill:#7d4b2a;}</style></defs><g id="Слой_2" data-name="Слой 2"><g id="Layer_1" data-name="Layer 1"><path class="cls-1" d="M21.3,130.28c-.06,3.15-.11,6.3-.17,9.45a71.53,71.53,0,0,0,61.79.09V130Z"/><path class="cls-2" d="M98,63.16c0,7.43-20.34,13.46-45.44,13.46s-45.45-6-45.45-13.46S27.48,49.69,52.58,49.69,98,55.72,98,63.16Z"/><path class="cls-2" d="M2.66,64.24a83.14,83.14,0,0,0,1.19,38.81c2.77,10,6.09,21.84,17.19,30.3,12.58,9.57,27.26,8.75,34.73,8.34,6.86-.38,17.65-1,27.74-8.34,13.4-9.77,16.67-25,18.73-34.56a78.24,78.24,0,0,0-1.37-37.61,19.29,19.29,0,0,1-2.72,7.15c-6.44,10-21,10.56-44.76,11.06C22.44,80,13.65,74.75,9,70.88A38,38,0,0,1,2.66,64.24Z"/><path class="cls-1" d="M52.24,47.73c-27.52,0-49.83,7.81-49.83,17.45S24.72,82.62,52.24,82.62s49.83-7.81,49.83-17.44S79.76,47.73,52.24,47.73Zm.21,26.38C28.81,74.11,9.64,69,9.64,62.79S28.81,51.47,52.45,51.47s42.81,5.07,42.81,11.32S76.09,74.11,52.45,74.11Z"/><path class="cls-2" d="M101.56,81.6a19,19,0,0,1,12.25-3.23c.39,0,8.06.84,12.09,6.13,6.7,8.79,1.19,27.14-10.9,35.4-9.88,6.76-21.26,4.77-24.51,4.09q1.53-3.49,3.07-7a26,26,0,0,0,14-2.05c.67-.3,12.46-5.92,13.62-16.85.19-1.82.7-6.65-2.21-9.19-3.37-2.93-10.42-2-16.85,3.24Z"/><path class="cls-1" d="M98.15,68.33A18.05,18.05,0,0,1,90,75.09a42.9,42.9,0,0,1,3.19,15.53c.26,20.12-14.38,39.94-37.61,51.08h.17c6.86-.38,17.65-1,27.74-8.34,13.4-9.77,16.67-25,18.73-34.56a78.24,78.24,0,0,0-1.37-37.61A19.29,19.29,0,0,1,98.15,68.33Z"/><path class="cls-3" d="M8.83,48.29A24.46,24.46,0,0,0,8,58.41c.37,2.86,1.38,10.61,7.52,14,5.21,2.83,10.78.69,12,.17a89.35,89.35,0,0,0,18.88,4.88c22.6,3.25,39-3.23,45.62-9.24,3.58-3.26,4-6.09,4-7,.34-4.44-3.18-7.73-3.51-8-2.48-2.26-6.15-3.29-13.31-2.33-12.06,1.62-15.19,6.38-29.69,10.93-5.54,1.74-9.84,3-15.82,3-4.78,0-14.52-.07-20.61-7.33A20.71,20.71,0,0,1,8.83,48.29Z"/><path class="cls-3" d="M20.45,30.91a16.84,16.84,0,0,0-5.68,3.28c-5.9,5.23-5.93,13-5.9,14.54a17.05,17.05,0,0,0,5.46,7.1c7.55,5.56,17.88,2.3,22.73.77a40.71,40.71,0,0,0,15.09-8.75,33.37,33.37,0,0,1-19.35,3.5c-3.89-.53-14.21-1.92-16.17-8.74C15.09,37.27,19.61,31.89,20.45,30.91Z"/><path class="cls-4" d="M39.14,4.19C38.79,3.1,41.72.37,44.82,0c3.57-.39,7.33,2.38,9.79,6.83.24,2.57-.78,5-2.63,6.06-2.65,1.52-7,.18-8.85-3.82A4.66,4.66,0,0,0,42,5.77C40.87,4.57,39.37,4.89,39.14,4.19Z"/><path class="cls-3" d="M54.06,6.12c0,.33-.05,3.48-2.25,4.91-2.37,1.55-6.5.61-8.82-3-.25,1.29-.92,5.6,1.56,8.4,4.64,5.25,16.82,1.35,17.54-2.46.23-1.18-.67-2.33-1.29-3a5.12,5.12,0,0,0-1.94-4.32A5.1,5.1,0,0,0,54.06,6.12Z"/><path class="cls-4" d="M43,8a8.93,8.93,0,0,0,4.51,8.4c4.13,2.21,8.34-.21,9.31-.82a10.63,10.63,0,0,0,4-4.65c.4.34,3,2.6,2.69,5.39-.44,3.64-5.5,5-6.77,5.37-1.06.29-7.07,1.94-11.35-2.33A10.87,10.87,0,0,1,43,8Z"/><path class="cls-3" d="M60.8,11a7.79,7.79,0,0,1,0,5.6c-1.6,3.84-6,4.51-6.56,4.59a9.8,9.8,0,0,1-7.37-2.38,10.45,10.45,0,0,1-3.77-5.41A10.44,10.44,0,0,1,43,8a8,8,0,0,0-3.19,3.61,7.93,7.93,0,0,0-.41,5.16,8.33,8.33,0,0,0,.24,5.82c2,4.09,7.65,4.63,11.48,5,3.54.35,12.61,1.22,15.33-3.93,1.3-2.46.64-5.33,0-7.13A4.66,4.66,0,0,0,66,12.71,4.68,4.68,0,0,0,60.8,11Z"/><path class="cls-4" d="M39.39,16.81a4.74,4.74,0,0,0-7.46.74A7.54,7.54,0,0,0,30.78,23c.95,5.55,11.08,9.62,19.59,10.17,9.15.58,20.84-2.62,22.54-8.86.11-.38,1-3.81-1.06-6.06-1.86-2-4.9-1.78-5.41-1.72a7.5,7.5,0,0,1-.33,4.92c-2.08,4.4-8.88,4.64-11.8,4.75-3.21.12-8.47.3-12.05-3.52A11.63,11.63,0,0,1,39.39,16.81Z"/><path class="cls-3" d="M66.44,16.57c2.54.9,5.67,2.39,5.9,4.59.44,4.14-9.49,9.63-18.77,10.41-7,.59-18.29-1.13-21.15-8.28a10.68,10.68,0,0,1-.49-5.74,8.7,8.7,0,0,0-4.67,7.71,20.71,20.71,0,0,0,7,10.16c9.56,7.16,26.47,4.67,41.24-7.21A7.53,7.53,0,0,0,76.6,23C75.84,19.36,71.7,16.47,66.44,16.57Z"/><path class="cls-4" d="M27.42,23.94a20.19,20.19,0,0,0,7.13,9.68C41.91,38.81,53,38.18,62.29,32c-2.18,2.56-8.81,9.61-19.13,10.77-2.84.32-8.95,1-14-2.87-.57-.44-7-5.52-5.49-11.15A8.68,8.68,0,0,1,27.42,23.94Z"/><path class="cls-3" d="M85,33.45a12.56,12.56,0,0,0-5.08-4.83,13.72,13.72,0,0,0-9.41-.75c-4.44.95-6.18,2.95-10.26,5.42-2.57,1.55-11,6.51-20.66,5.9-2.6-.16-8.66-.55-12-4.92-.58-.77-3-3.91-2-7.37a6.86,6.86,0,0,1,1.8-3,7.68,7.68,0,0,0-7,7,9,9,0,0,0-1.72,6c1,8.29,17.4,11.47,18.77,11.72,8.47,1.56,15.24-.2,20.82-1.72A75.7,75.7,0,0,0,85,33.45Z"/><path class="cls-4" d="M55.29,46.32c-5,1.08-15.57,2.73-25.33-1.23-6.09-2.46-7.85-5.48-8.36-6.47a12.86,12.86,0,0,1-1.15-7.71c-1.93,1.17-5.76,3.87-6.31,8C13.18,46,22.93,52,29.06,54.19c9.49,3.35,22.36,1.64,25.49-4.92A7.83,7.83,0,0,0,55.29,46.32Z"/><path class="cls-4" d="M92.16,39.54A12.25,12.25,0,0,0,86.9,33c-1.77-1-5-2.07-12.46.33s-10.1,5.43-20,11.91C46.55,50.4,42.61,53,37.5,54.63a42.51,42.51,0,0,1-20,1.28,29.43,29.43,0,0,0,11,4.51c3.9.7,8.83.71,29-7.54,11.28-4.62,16-7.18,27.44-11C88,40.82,90.47,40.05,92.16,39.54Z"/><path class="cls-3" d="M94.23,43.7A9.56,9.56,0,0,0,92.59,40c-1.56-2-6.93-3.72-16-1.53C64.68,41.34,63.14,47,48.54,54.08,40.65,57.92,35.59,60.27,29,59.77,18.53,59,11.42,51.4,8.81,48.29a18.15,18.15,0,0,0,5.08,9.18C25,67.74,49.55,58.93,55.75,56.71c.91-.33,31.89-11.47,36.18-9.84.2.07,1.3.54,2,.05C94.74,46.29,94.38,44.46,94.23,43.7Z"/><path class="cls-4" d="M95.32,57.8c.37-1.09,1.84-5.84-.66-9.84-2.73-4.38-8.36-4.83-10.71-5-5.6-.45-9.45,1.49-22.84,8.64C46.42,59.42,45.79,59.9,43,60.64c-4.25,1.12-13.6,3.54-22.85-1.2A27.79,27.79,0,0,1,8.81,48.29a14.58,14.58,0,0,0,1.91,8.31c5.89,9.54,24.47,9.4,36.62,6.66C63,59.73,66.86,52.12,79.69,52.88A35.37,35.37,0,0,1,95.32,57.8Z"/><path class="cls-4" d="M31.68,69.11a55.84,55.84,0,0,0,36,4.65A55,55,0,0,0,93.3,60.42a33.71,33.71,0,0,0-15.39-3.19c-8.51.35-13.07,4.14-22.16,7.46A75.82,75.82,0,0,1,31.68,69.11Z"/><path class="cls-4" d="M8.87,57.14a22,22,0,0,0,22.81,12c-.4.27-7.07,4.48-14.29,1.15A14.83,14.83,0,0,1,8.87,57.14Z"/><path class="cls-1" d="M36.41,37.38h0a1.2,1.2,0,0,1,.22-1.69l3.21-2.5a1.21,1.21,0,0,1,1.7.21h0a1.21,1.21,0,0,1-.22,1.7l-3.21,2.5A1.21,1.21,0,0,1,36.41,37.38Z"/><path class="cls-5" d="M68.25,26.9h0a1.21,1.21,0,0,1-1.54-.74l-1.34-3.85a1.21,1.21,0,0,1,.75-1.54h0a1.21,1.21,0,0,1,1.54.75L69,25.36A1.21,1.21,0,0,1,68.25,26.9Z"/><path class="cls-6" d="M66.09,54.48h0a1.21,1.21,0,0,1-1.61-.59L62.77,50.2a1.22,1.22,0,0,1,.59-1.61h0a1.21,1.21,0,0,1,1.61.59l1.71,3.7A1.21,1.21,0,0,1,66.09,54.48Z"/><path class="cls-5" d="M15.8,50.39h0A1.21,1.21,0,0,1,15,48.87L16.27,45a1.2,1.2,0,0,1,1.52-.78h0a1.2,1.2,0,0,1,.78,1.52l-1.25,3.88A1.2,1.2,0,0,1,15.8,50.39Z"/><path class="cls-1" d="M76.1,41.79h0a1.2,1.2,0,0,1-.78-1.52l1.25-3.88a1.22,1.22,0,0,1,1.52-.78h0a1.2,1.2,0,0,1,.78,1.52L77.62,41A1.22,1.22,0,0,1,76.1,41.79Z"/><path class="cls-6" d="M44,17.83h0A1.21,1.21,0,0,1,43,16.49l.43-4a1.21,1.21,0,0,1,1.33-1.08h0a1.22,1.22,0,0,1,1.08,1.34l-.44,4A1.21,1.21,0,0,1,44,17.83Z"/><path class="cls-1" d="M53.25,74.34h0a1.21,1.21,0,0,1-1.66-.44l-2-3.52A1.21,1.21,0,0,1,50,68.72h0a1.21,1.21,0,0,1,1.65.45l2,3.52A1.22,1.22,0,0,1,53.25,74.34Z"/><path class="cls-5" d="M73.9,62h0a1.21,1.21,0,0,1-.78-1.52l1.25-3.88a1.22,1.22,0,0,1,1.52-.78h0a1.21,1.21,0,0,1,.78,1.53l-1.25,3.87A1.2,1.2,0,0,1,73.9,62Z"/><path class="cls-5" d="M40.34,52.17h0a1.21,1.21,0,0,1-1.61-.59L37,47.89a1.22,1.22,0,0,1,.59-1.61h0a1.21,1.21,0,0,1,1.61.59l1.71,3.7A1.21,1.21,0,0,1,40.34,52.17Z"/><path class="cls-6" d="M28.19,62.32h0a1.2,1.2,0,0,1-1.5-.81l-1.18-3.9a1.21,1.21,0,0,1,.81-1.51h0a1.22,1.22,0,0,1,1.51.81L29,60.81A1.22,1.22,0,0,1,28.19,62.32Z"/><path class="cls-1" d="M89.79,55.82h0a1.2,1.2,0,0,1-.92-1.44l.87-4a1.21,1.21,0,0,1,1.44-.92h0a1.21,1.21,0,0,1,.92,1.44l-.87,4A1.22,1.22,0,0,1,89.79,55.82Z"/><path class="cls-5" d="M33.62,28.48h0a1.21,1.21,0,0,1-1.54-.74l-1.34-3.85a1.21,1.21,0,0,1,.74-1.54h0A1.21,1.21,0,0,1,33,23.1l1.34,3.84A1.21,1.21,0,0,1,33.62,28.48Z"/><path class="cls-1" d="M59.59,37.27h0a1.21,1.21,0,0,1-1.65-.44l-2-3.53a1.21,1.21,0,0,1,.45-1.65h0a1.21,1.21,0,0,1,1.65.44l2,3.53A1.2,1.2,0,0,1,59.59,37.27Z"/><path class="cls-4" d="M48.72,99.43A94.1,94.1,0,0,1,.48,85.88a1,1,0,0,1,1-1.71,91.85,91.85,0,0,0,50,13.21,91.62,91.62,0,0,0,51.69-18.27,1,1,0,0,1,1.4.2,1,1,0,0,1-.19,1.4A93.76,93.76,0,0,1,51.62,99.38C50.65,99.41,49.68,99.43,48.72,99.43Z"/><path class="cls-4" d="M49.61,122.34a94,94,0,0,1-44-11,1,1,0,1,1,.94-1.76,92.2,92.2,0,0,0,45.11,10.77A91.9,91.9,0,0,0,100,105.23a1,1,0,1,1,1.1,1.67,93.88,93.88,0,0,1-49.44,15.42Z"/><path class="cls-4" d="M37.82,121.08,24.76,98.18l-12,16.51L1,87.37a1,1,0,0,1,1.83-.79l10.37,24.09L25,94.5l13.15,23.06L53.78,98.38l18.62,17L80.24,91.9,95.15,106l7-25.46a1,1,0,1,1,1.92.53L96.19,109.7l-15-14.2L73.32,119,54,101.28Z"/><path class="cls-4" d="M24.41,114.28a3.91,3.91,0,1,1,3.9-3.91A3.91,3.91,0,0,1,24.41,114.28Zm0-5.81a1.91,1.91,0,1,0,1.9,1.9A1.91,1.91,0,0,0,24.41,108.47Z"/><path class="cls-4" d="M39.47,107.73a3.65,3.65,0,1,1,3.65-3.64A3.65,3.65,0,0,1,39.47,107.73Zm0-5.29a1.65,1.65,0,1,0,1.65,1.65A1.65,1.65,0,0,0,39.47,102.44Z"/><path class="cls-4" d="M54.88,117.28a4.2,4.2,0,1,1,4.2-4.2A4.2,4.2,0,0,1,54.88,117.28Zm0-6.39a2.2,2.2,0,1,0,2.2,2.19A2.2,2.2,0,0,0,54.88,110.89Z"/><path class="cls-4" d="M71.18,107a4,4,0,1,1,4-4A4,4,0,0,1,71.18,107Zm0-5.92a2,2,0,1,0,2,2A2,2,0,0,0,71.18,101Z"/><path class="cls-4" d="M84.45,111a3.7,3.7,0,1,1,3.7-3.7A3.7,3.7,0,0,1,84.45,111Zm0-5.39a1.7,1.7,0,1,0,1.7,1.69A1.69,1.69,0,0,0,84.45,105.6Z"/><path class="cls-4" d="M12.21,100.68a3.4,3.4,0,1,1,3.4-3.39A3.39,3.39,0,0,1,12.21,100.68Zm0-4.79a1.4,1.4,0,1,0,1.4,1.4A1.4,1.4,0,0,0,12.21,95.89Z"/><path class="cls-4" d="M93,98.43a4.06,4.06,0,1,1,4.06-4.05A4.06,4.06,0,0,1,93,98.43Zm0-6.11a2.06,2.06,0,1,0,2.06,2.06A2.06,2.06,0,0,0,93,92.32Z"/></g></g></svg>