<svg xmlns="http://www.w3.org/2000/svg" viewBox="0 0 191.27 200.95"><defs><style>.cls-1{fill:#d9a382;}.cls-2{fill:#f9cda0;}.cls-3{fill:#eab893;}.cls-4{fill:#d01601;}.cls-5{fill:#831909;}.cls-6{fill:#f0301e;}.cls-7{fill:#670c00;}</style></defs><g id="Слой_2" data-name="Слой 2"><g id="Layer_1" data-name="Layer 1"><path class="cls-1" d="M8.49,88.74a51.09,51.09,0,0,1,14.66-25.4C27.63,59.25,35.49,54,61,51.7c17.45-1.6,43.74-3.73,76.8,7.1,20.95,6.86,33.43,11,41.13,23.89,7.11,12,9.46,30.37.45,42-4,5.2-10.67,9.56-33.72,12.25a222.55,222.55,0,0,1-92.52-8.77C34.4,122.42,9.38,114.4,7.28,99.62,6.77,96.08,7.63,92.42,8.49,88.74Z"/><path class="cls-2" d="M187.19,122.45a154.9,154.9,0,0,1-6.95,39.92c-4.71,14.87-8.86,19.85-10.28,21.47-3.12,3.53-10.32,10.31-28.87,14.58-12.86,3-27.72,3.91-53.68-.37-32.67-5.39-49-8.16-59.87-17.84C3.06,158.43,6.42,120.1,7.38,111.47a451.15,451.15,0,0,0,75.79,20.36c27.84,4.89,41.41,4.47,45.59,4.3A162.27,162.27,0,0,0,187.19,122.45Z"/><path class="cls-3" d="M182.35,80.42C160,43.87,104.3,46.16,70.27,47.56,35.58,49,22.72,57.84,16,64.09,13.05,66.9-1.46,80.51.12,99,.37,101.91,1.7,117.52,14,123c9.55,4.21,19.24-.54,21-1.41.19,1.38,1.56,10.35,9.48,15.32,7.47,4.68,17.72,3.87,25.4-2.22.51,1.14,5.9,12.78,19.15,15.52,14,2.89,23.88-6.74,24.59-7.46,6.26,7.67,16.34,10.78,25.2,7.86,11.06-3.63,14.44-14.75,14.72-15.72,7.6,6.75,18.26,8.14,26.4,3.63,9.28-5.13,10.92-15.49,11.09-16.73C192.58,100.4,186.5,87.21,182.35,80.42Zm-5.84,32.86c-1.6,3.1-7.3,12.25-35.68,16.33-15.45,2.22-42.92,3.7-80.64-9.48-23.49-8.2-47.72-16.67-49.18-32-1.06-11,10-20.29,13.5-23.18,16.32-13.66,37.36-12.05,68.34-9.68,28.75,2.2,45,8,54.43,12.1,23.28,10.07,28,19.49,29.63,23.79C177.62,93,181.46,103.69,176.51,113.28Z"/><path class="cls-4" d="M17.72,58.23c6.54-6.79,16.55-17.2,31-16.33,12.48.76,23.39,9.67,28,20.36,7.3,16.92-.1,40.8-19.73,48.15-17.82,6.67-36.14-3.89-43.48-16.55-1-1.73-7.31-12.6-3.47-24.2C11.68,64.57,14.61,61.46,17.72,58.23Z"/><path class="cls-5" d="M24.61,63.11c3.19,1.54,8.34-1,11.35-4.35,2.08-2.35,4.46-6.64,3-9.38-.38-.69-1.19-1.62-2-1.54-1.2.11-1.23,2.21-2.76,4.67-2.4,3.86-7,6.19-8,6.68C24.55,60,23,60.44,23,61.36S24.43,63,24.61,63.11Z"/><path class="cls-6" d="M46.83,54.15c4.17,2.52,8.3-1.4,12.09,1.11,1.66,1.11,1.73,2.44,3.28,2.65a4.44,4.44,0,0,0,4.56-3.12c.59-3.19-5.33-6.32-6.73-7.06-1.17-.62-8.81-4.65-13.31-1.27-.18.14-2.69,2.08-2.39,4.46A5,5,0,0,0,46.83,54.15Z"/><path class="cls-6" d="M65.72,62.13a36.22,36.22,0,0,1,.75,28.32c-.5,1.61-.12,3.19.77,3.73,1.13.7,3.47,0,4.5-2.39A42.78,42.78,0,0,0,71.11,60a2.9,2.9,0,0,0-5.39,2.15Z"/><path class="cls-7" d="M30.55,57.81a32.83,32.83,0,0,1-7.53-12c-.95-2.69-3.1-8.82-.64-10.81a4,4,0,0,1,4.78.21c1.81,1.65.35,4.74.63,8.59.2,2.75,1.35,6.66,5.83,11.24A2.83,2.83,0,0,1,32.88,57,2.94,2.94,0,0,1,30.55,57.81Z"/><path class="cls-4" d="M97.17,26.75c9.42-.44,23.85-1.13,33.72,9.41,8.54,9.12,10.35,23.09,6.36,34-6.32,17.3-28.1,29.58-47.41,21.43C72.3,84.23,66.25,64,69.61,49.73c.46-1.95,3.34-14.18,14.1-20C88.42,27.22,92.7,27,97.17,26.75Z"/><path class="cls-5" d="M98.82,35c1.27,3.31,6.72,5,11.24,4.64,3.13-.28,7.81-1.76,8.6-4.78.2-.77.25-2-.41-2.5-1-.75-2.41.76-5.2,1.49-4.41,1.16-9.36-.31-10.41-.64-1.7-.54-3.15-1.25-3.81-.61S98.75,34.84,98.82,35Z"/><path class="cls-6" d="M121.13,43.78c1.3,4.7,7,4.69,8,9.12.45,1.94-.42,3,.56,4.18a4.45,4.45,0,0,0,5.47.86c2.61-1.91.46-8.25-.05-9.75-.43-1.26-3.21-9.43-8.8-10.07-.23,0-3.38-.34-4.79,1.6A4.93,4.93,0,0,0,121.13,43.78Z"/><path class="cls-6" d="M129.37,62.56a36.19,36.19,0,0,1-18.9,21.1c-1.48.82-2.28,2.23-2,3.24.34,1.28,2.54,2.37,4.91,1.35a42.72,42.72,0,0,0,21.4-23.55,3,3,0,0,0-2.06-3.76A3,3,0,0,0,129.37,62.56Z"/><path class="cls-7" d="M106.78,35.26a33,33,0,0,1,2.76-13.88c1.16-2.61,3.81-8.54,7-8.3a4,4,0,0,1,3.32,3.43c.19,2.45-3,3.69-5.43,6.68-1.75,2.14-3.6,5.77-3.49,12.18a2.9,2.9,0,0,1-1.85.88A3,3,0,0,1,106.78,35.26Z"/><path class="cls-4" d="M54.9,70.07c7.56-5.63,19.15-14.26,33.23-11,12.18,2.8,21.48,13.38,24.27,24.68C116.82,101.61,105.61,124,85,128c-18.67,3.65-35-9.77-40.17-23.46-.71-1.87-5.15-13.63.54-24.45C47.91,75.34,51.31,72.74,54.9,70.07Z"/><path class="cls-5" d="M60.9,76c2.89,2,8.38.43,11.91-2.42,2.44-2,5.49-5.82,4.46-8.77C77,64.07,76.37,63,75.54,63c-1.21-.09-1.58,2-3.49,4.15-3,3.42-7.93,5-9,5.28-1.71.5-3.31.72-3.5,1.62S60.73,75.9,60.9,76Z"/><path class="cls-6" d="M84.28,70.82C88,74,92.71,70.81,96,73.9c1.46,1.37,1.3,2.69,2.81,3.16a4.45,4.45,0,0,0,5-2.34c1.1-3-4.23-7.11-5.49-8.06-1.06-.81-7.93-6-12.92-3.44-.2.1-3,1.61-3.08,4C82.29,69.11,84,70.53,84.28,70.82Z"/><path class="cls-6" d="M101.61,81.79a36.17,36.17,0,0,1-3.9,28.06c-.77,1.51-.64,3.13.14,3.81,1,.87,3.43.55,4.83-1.62a42.62,42.62,0,0,0,4.6-31.48,3,3,0,0,0-3.81-2A3,3,0,0,0,101.61,81.79Z"/><path class="cls-7" d="M67.63,71.76A32.82,32.82,0,0,1,62.17,58.7c-.5-2.81-1.62-9.21,1.14-10.77a4,4,0,0,1,4.68,1c1.52,1.92-.43,4.73-.79,8.58-.25,2.75.24,6.79,3.91,12a2.78,2.78,0,0,1-1,1.76A2.93,2.93,0,0,1,67.63,71.76Z"/><path class="cls-3" d="M61.8,120.74a130.47,130.47,0,0,1-3-54.83C61.21,51,63.47,37,75.31,26.6c2.86-2.52,18-15.17,35.88-10.28,15.26,4.16,26.65,19.41,27.82,37.9l17.34,6.85A59.16,59.16,0,0,0,146.27,26.4c-1.85-2.71-16.15-22.85-41.93-24.8C79.18-.3,59.46,16.36,50.52,31.44c-5.72,9.64-7,18.44-8.47,30a144,144,0,0,0,3.63,55Z"/><path class="cls-4" d="M140.85,55.73c9.42-.45,23.85-1.13,33.73,9.4,8.54,9.12,10.34,23.1,6.35,34-6.31,17.31-28.09,29.59-47.4,21.44C116,113.2,109.94,93,113.29,78.71c.46-1.95,3.35-14.18,14.11-20C132.11,56.19,136.38,55.94,140.85,55.73Z"/><path class="cls-5" d="M142.51,64c1.26,3.31,6.72,5,11.23,4.64,3.14-.28,7.81-1.77,8.61-4.79.2-.76.25-2-.41-2.5-.95-.74-2.42.76-5.21,1.5-4.4,1.16-9.35-.31-10.41-.64-1.69-.54-3.14-1.26-3.8-.61S142.44,63.82,142.51,64Z"/><path class="cls-6" d="M164.81,72.76c1.3,4.7,7,4.69,8,9.11.45,1.95-.41,3,.57,4.19a4.44,4.44,0,0,0,5.46.86c2.62-1.92.46-8.26-.05-9.75-.42-1.26-3.2-9.44-8.79-10.07-.23,0-3.39-.34-4.8,1.6A5,5,0,0,0,164.81,72.76Z"/><path class="cls-6" d="M173.06,91.54a36.25,36.25,0,0,1-18.91,21.1c-1.47.82-2.27,2.23-2,3.24.34,1.27,2.53,2.37,4.91,1.35a42.75,42.75,0,0,0,21.39-23.55,2.9,2.9,0,0,0-5.39-2.14Z"/><path class="cls-7" d="M150.47,64.24a33,33,0,0,1,2.76-13.88c1.16-2.61,3.81-8.54,7-8.3a4,4,0,0,1,3.32,3.43c.19,2.45-3,3.69-5.44,6.68-1.74,2.14-3.6,5.77-3.48,12.18a2.86,2.86,0,0,1-1.85.87A2.92,2.92,0,0,1,150.47,64.24Z"/><path class="cls-4" d="M110.92,79c8.77-3.47,22.2-8.79,35-2,11,5.87,17.26,18.51,17,30.14-.38,18.42-17,37.08-37.92,35.62-19-1.33-31.27-18.54-32.7-33.09-.19-2-1.42-14.51,6.89-23.47C102.8,82.24,106.76,80.63,110.92,79Z"/><path class="cls-5" d="M115.16,86.28c2.27,2.72,8,2.59,12.13.75,2.88-1.28,6.82-4.19,6.6-7.31-.06-.78-.41-2-1.2-2.23-1.14-.4-2,1.5-4.44,3.1-3.79,2.52-9,2.73-10.06,2.76-1.78,0-3.38-.17-3.79.65S115,86.12,115.16,86.28Z"/><path class="cls-6" d="M139.1,87.34c2.75,4,8.13,2.18,10.53,6,1.06,1.7.57,2.94,1.9,3.78a4.45,4.45,0,0,0,5.44-1c1.86-2.66-2.23-8-3.2-9.21-.81-1.06-6.09-7.89-11.58-6.68-.22,0-3.31.77-4,3.06A4.91,4.91,0,0,0,139.1,87.34Z"/><path class="cls-6" d="M153,102.45a36.27,36.27,0,0,1-11.07,26.07c-1.13,1.26-1.43,2.85-.85,3.72.73,1.1,3.16,1.42,5.08-.31a42.67,42.67,0,0,0,12.63-29.2,3,3,0,0,0-3.16-2.9A3,3,0,0,0,153,102.45Z"/><path class="cls-7" d="M122.77,83.92a32.9,32.9,0,0,1-1.88-14c.26-2.84.84-9.31,3.91-10.11A4,4,0,0,1,129.05,62c1,2.25-1.64,4.45-3,8.08-1,2.59-1.54,6.62.64,12.65a2.8,2.8,0,0,1-1.47,1.42A2.92,2.92,0,0,1,122.77,83.92Z"/><path class="cls-3" d="M176.51,113.28c-1.6,3.1-7.3,12.25-35.68,16.33-15.45,2.22-42.92,3.7-80.64-9.48-22.63-7.9-45.94-16-48.93-30.39L.81,88.87A33.5,33.5,0,0,0,.12,99C.37,101.91,1.7,117.52,14,123c9.55,4.21,19.24-.54,21-1.41.19,1.38,1.56,10.35,9.48,15.32,7.47,4.68,17.72,3.87,25.4-2.22.51,1.14,5.9,12.78,19.15,15.52,14,2.89,23.88-6.74,24.59-7.46,6.26,7.67,16.34,10.78,25.2,7.86,11.06-3.63,14.44-14.75,14.72-15.72,7.6,6.75,18.26,8.14,26.4,3.63,9.28-5.13,10.92-15.49,11.09-16.73a83.87,83.87,0,0,0-.42-17.2l-11.63-1A23.16,23.16,0,0,1,176.51,113.28Z"/><path class="cls-3" d="M32.08,149.33a10.66,10.66,0,0,1-1.49-.1c-5.91-.82-10.32-6.38-10-12.66a2,2,0,0,1,2.09-1.9,2,2,0,0,1,1.9,2.08,8.08,8.08,0,0,0,6.6,8.52,7.92,7.92,0,0,0,7.93-4.39,2,2,0,1,1,3.54,1.85A12,12,0,0,1,32.08,149.33Z"/><path class="cls-3" d="M64.57,163.66a10,10,0,0,1-1.1-.06,11.83,11.83,0,0,1-10.41-11.06,2,2,0,1,1,4-.3,7.57,7.57,0,0,0,14.38,3.14A2,2,0,1,1,75,157.26,12,12,0,0,1,64.57,163.66Z"/><path class="cls-3" d="M37.53,172.09a5.82,5.82,0,0,1-.59,0,10.42,10.42,0,0,1-7.23-3.68,11.09,11.09,0,0,1-2.65-8.32,2,2,0,1,1,4,.36,7.15,7.15,0,0,0,1.7,5.36,6.5,6.5,0,0,0,4.44,2.29A6.86,6.86,0,0,0,44,162.66a2,2,0,0,1,3.9.92A11,11,0,0,1,37.53,172.09Z"/><path class="cls-3" d="M81.53,190.87c-.37,0-.74,0-1.11-.05a13.07,13.07,0,0,1-11.64-13.54,2,2,0,1,1,4,.11,9.19,9.19,0,0,0,8,9.44A9.08,9.08,0,0,0,90,180.49a2,2,0,1,1,3.8,1.25A13.17,13.17,0,0,1,81.53,190.87Z"/><path class="cls-3" d="M103.24,171.32h-.13A12.61,12.61,0,0,1,91.22,162a2,2,0,1,1,3.86-1.06,8.59,8.59,0,0,0,8.07,6.39h.1a8.67,8.67,0,0,0,8.35-7.13,2,2,0,0,1,3.93.72A12.7,12.7,0,0,1,103.24,171.32Z"/><path class="cls-3" d="M124.43,188.15a10,10,0,0,1-1.09-.06c-5.35-.55-9.85-5.08-10.7-10.76a2,2,0,1,1,4-.59,8.48,8.48,0,0,0,7.15,7.37,7.82,7.82,0,0,0,5.74-1.87,9.06,9.06,0,0,0,3.25-6.28,2,2,0,1,1,4,.33,13,13,0,0,1-4.67,9A12,12,0,0,1,124.43,188.15Z"/><path class="cls-3" d="M150.34,167.94a12.21,12.21,0,0,1-10.53-6.07,2,2,0,0,1,3.45-2,8.17,8.17,0,0,0,15.19-3,2,2,0,1,1,4,.54,12.19,12.19,0,0,1-12.07,10.59Z"/><path class="cls-3" d="M160.15,182.27c-5.06,0-8.53-3.76-8.93-4.22a2,2,0,0,1,3-2.64c.12.13,2.95,3.3,6.72,2.81,3.57-.45,6.4-3.75,6.72-7.84a2,2,0,1,1,4,.31c-.47,6-4.76,10.81-10.21,11.5A9.5,9.5,0,0,1,160.15,182.27Z"/><path class="cls-3" d="M171.43,155.16a10.07,10.07,0,0,1-2-.21,10.49,10.49,0,0,1-8.17-10,2,2,0,0,1,1.94-2.05,2,2,0,0,1,2.06,1.94,6.23,6.23,0,0,0,11.47,3.46,2,2,0,1,1,3.29,2.26A10.43,10.43,0,0,1,171.43,155.16Z"/><path class="cls-1" d="M44,111a1.5,1.5,0,0,1-.48-2.92,17.9,17.9,0,0,0,12.2-17.87,1.5,1.5,0,0,1,3-.13,20.91,20.91,0,0,1-14.23,20.84A1.4,1.4,0,0,1,44,111Z"/><path class="cls-1" d="M41.18,90.39a1.5,1.5,0,0,1-.29-3,18.68,18.68,0,0,0,7.9-3.54c6-4.61,7.23-11.45,7.49-14.18a1.5,1.5,0,0,1,3,.29c-.3,3.12-1.74,10.94-8.64,16.27a21.81,21.81,0,0,1-9.16,4.11A1.43,1.43,0,0,1,41.18,90.39Z"/><path class="cls-1" d="M41.56,67.27a1.5,1.5,0,0,1-.46-2.93,33.05,33.05,0,0,0,8.72-4.28A34.44,34.44,0,0,0,61.51,45.87a1.5,1.5,0,1,1,2.73,1.23A37.41,37.41,0,0,1,51.52,62.53,36.52,36.52,0,0,1,42,67.2,1.51,1.51,0,0,1,41.56,67.27Z"/><path class="cls-1" d="M45.39,44.7a1.48,1.48,0,0,1-1.45-1.12A1.5,1.5,0,0,1,45,41.75a67.1,67.1,0,0,0,15.22-6,66.83,66.83,0,0,0,13-9.28,1.5,1.5,0,0,1,2,2.22,70.51,70.51,0,0,1-13.62,9.7,70.55,70.55,0,0,1-15.9,6.3A1.28,1.28,0,0,1,45.39,44.7Z"/><path class="cls-1" d="M54,25.3a1.5,1.5,0,0,1-.47-2.92,66,66,0,0,1,29.72-2.83,1.5,1.5,0,1,1-.4,3A61.68,61.68,0,0,0,73.15,22a63.37,63.37,0,0,0-18.68,3.24A1.34,1.34,0,0,1,54,25.3Z"/><path class="cls-1" d="M100.33,17.14a1.48,1.48,0,0,1-1.25-.68,19.58,19.58,0,0,0-6.61-6.33C86,6.34,79.16,7.6,76.54,8.31a1.5,1.5,0,0,1-.79-2.89c3-.81,10.72-2.24,18.23,2.12a22.7,22.7,0,0,1,7.61,7.28,1.49,1.49,0,0,1-.44,2.07A1.44,1.44,0,0,1,100.33,17.14Z"/><path class="cls-1" d="M118.63,21.67a1.5,1.5,0,0,1-1.49-1.28,28.21,28.21,0,0,0-10-17.73A1.52,1.52,0,0,1,107,.54a1.52,1.52,0,0,1,2.12-.2,31.49,31.49,0,0,1,7.22,8.58,31.13,31.13,0,0,1,3.81,11,1.51,1.51,0,0,1-1.27,1.7Z"/><path class="cls-1" d="M133.23,35.8a1.33,1.33,0,0,1-.28,0,1.5,1.5,0,0,1-1.2-1.75,38.52,38.52,0,0,0-3.36-24.14,1.5,1.5,0,0,1,.69-2,1.48,1.48,0,0,1,2,.68,41.59,41.59,0,0,1,3.62,26A1.5,1.5,0,0,1,133.23,35.8Z"/><path class="cls-1" d="M139.57,53.73a1.51,1.51,0,0,1-1.16-.55,1.49,1.49,0,0,1,.2-2.11,24.49,24.49,0,0,0,6.27-7.77,24.92,24.92,0,0,0,2.57-13.9,1.5,1.5,0,1,1,3-.31,27.88,27.88,0,0,1-2.88,15.58,27.36,27.36,0,0,1-7,8.71A1.51,1.51,0,0,1,139.57,53.73Z"/></g></g></svg>