<?xml version="1.0" encoding="UTF-8"?>
<!DOCTYPE svg PUBLIC "-//W3C//DTD SVG 1.1//EN" "http://www.w3.org/Graphics/SVG/1.1/DTD/svg11.dtd">
<svg xmlns="http://www.w3.org/2000/svg" version="1.1" width="998px" height="1307px" style="shape-rendering:geometricPrecision; text-rendering:geometricPrecision; image-rendering:optimizeQuality; fill-rule:evenodd; clip-rule:evenodd" xmlns:xlink="http://www.w3.org/1999/xlink">
<g><path style="opacity:1" fill="#4ec6e9" d="M 479.5,-0.5 C 492.167,-0.5 504.833,-0.5 517.5,-0.5C 590.521,10.3489 641.688,49.6822 671,117.5C 679.813,141.047 683.647,165.381 682.5,190.5C 680.035,190.233 677.701,189.566 675.5,188.5C 647.718,130.232 602.385,93.3982 539.5,78C 533.2,76.8393 526.866,76.0059 520.5,75.5C 507.541,73.4359 494.541,73.1026 481.5,74.5C 413.475,83.081 360.975,116.081 324,173.5C 320.628,178.91 317.795,184.577 315.5,190.5C 314.833,190.5 314.167,190.5 313.5,190.5C 313.709,117.223 344.709,61.3895 406.5,23C 429.502,10.6089 453.836,2.77559 479.5,-0.5 Z M 520.5,75.5 C 559.538,85.3608 586.704,109.028 602,146.5C 605.052,155.261 606.885,164.261 607.5,173.5C 534.5,172.167 461.5,172.167 388.5,173.5C 397.245,119.426 428.245,86.4264 481.5,74.5C 494.541,73.1026 507.541,73.4359 520.5,75.5 Z"/></g>
<g><path style="opacity:0.984" fill="#3aaecf" d="M 481.5,74.5 C 428.245,86.4264 397.245,119.426 388.5,173.5C 363.614,176.485 339.281,182.152 315.5,190.5C 317.795,184.577 320.628,178.91 324,173.5C 360.975,116.081 413.475,83.081 481.5,74.5 Z"/></g>
<g><path style="opacity:0.981" fill="#39adce" d="M 520.5,75.5 C 526.866,76.0059 533.2,76.8393 539.5,78C 602.385,93.3982 647.718,130.232 675.5,188.5C 653.229,181.653 630.563,176.653 607.5,173.5C 606.885,164.261 605.052,155.261 602,146.5C 586.704,109.028 559.538,85.3608 520.5,75.5 Z"/></g>
<g><path style="opacity:0.996" fill="#047784" d="M 607.5,173.5 C 630.563,176.653 653.229,181.653 675.5,188.5C 677.701,189.566 680.035,190.233 682.5,190.5C 781.388,227.556 847.555,296.223 881,396.5C 889.342,423.883 894.008,451.883 895,480.5C 895.5,602.5 895.667,724.5 895.5,846.5C 894.5,973.666 894.167,1101 894.5,1228.5C 894.192,1235.71 892.859,1242.71 890.5,1249.5C 877.722,1283.89 853.055,1302.89 816.5,1306.5C 604.5,1306.5 392.5,1306.5 180.5,1306.5C 143.693,1303.02 118.693,1284.02 105.5,1249.5C 103.542,1243.33 102.375,1237 102,1230.5C 101.5,1149.17 101.333,1067.83 101.5,986.5C 101.5,939.833 101.5,893.167 101.5,846.5C 101.333,721.5 101.5,596.5 102,471.5C 111.513,362.242 162.013,278.075 253.5,219C 272.616,207.608 292.616,198.108 313.5,190.5C 314.167,190.5 314.833,190.5 315.5,190.5C 339.281,182.152 363.614,176.485 388.5,173.5C 461.5,172.167 534.5,172.167 607.5,173.5 Z"/></g>
<g><path style="opacity:1" fill="#fcead8" d="M 183.5,431.5 C 180.311,429.74 176.978,428.24 173.5,427C 166.167,426.333 158.833,426.333 151.5,427C 148.97,427.379 146.637,428.213 144.5,429.5C 143.903,429.265 143.57,428.765 143.5,428C 168.718,331.453 227.385,264.12 319.5,226C 345.043,216.558 371.376,210.558 398.5,208C 463.833,207.333 529.167,207.333 594.5,208C 694.011,217.804 769.845,264.971 822,349.5C 843.14,386.05 855.64,425.384 859.5,467.5C 857.16,481.673 848.826,488.173 834.5,487C 825.9,483.738 821.066,477.572 820,468.5C 809.751,387.779 770.585,325.613 702.5,282C 668.3,261.532 631.3,249.865 591.5,247C 528.167,246.333 464.833,246.333 401.5,247C 315.299,257.154 250.133,299.321 206,373.5C 195.638,391.757 188.138,411.091 183.5,431.5 Z"/></g>
<g><path style="opacity:1" fill="#36a29c" d="M 736.5,710.5 C 736.5,710.833 736.5,711.167 736.5,711.5C 732.78,711.436 729.114,710.936 725.5,710C 648.834,709.5 572.167,709.333 495.5,709.5C 420.166,709.333 344.833,709.5 269.5,710C 266.487,710.502 263.487,711.002 260.5,711.5C 260.333,632.166 260.5,552.833 261,473.5C 271.381,408.88 306.881,364.38 367.5,340C 378.916,336.229 390.582,333.563 402.5,332C 465.5,331.333 528.5,331.333 591.5,332C 662.369,342.2 708.869,381.366 731,449.5C 733.308,458.71 734.975,468.043 736,477.5C 736.5,555.166 736.667,632.833 736.5,710.5 Z"/></g>
<g><path style="opacity:1" fill="#f5b443" d="M 497.5,396.5 C 501.493,396.245 504.326,397.911 506,401.5C 514.924,429.939 524.424,458.105 534.5,486C 565.081,487.318 595.748,487.985 626.5,488C 633.041,491.495 634.041,496.162 629.5,502C 605.386,519.114 581.552,536.614 558,554.5C 557.333,556.833 557.333,559.167 558,561.5C 566.934,588.802 575.767,616.136 584.5,643.5C 582.504,651.318 577.837,653.484 570.5,650C 547.833,633.333 525.167,616.667 502.5,600C 500.19,599.503 497.857,599.337 495.5,599.5C 497.491,532.048 498.158,464.381 497.5,396.5 Z"/></g>
<g><path style="opacity:1" fill="#fdd23e" d="M 497.5,396.5 C 498.158,464.381 497.491,532.048 495.5,599.5C 472.019,616.079 448.686,632.912 425.5,650C 416.42,653.215 412.253,650.048 413,640.5C 421.667,613.833 430.333,587.167 439,560.5C 439.667,558.833 439.667,557.167 439,555.5C 435.85,552.021 432.35,548.854 428.5,546C 407.387,531.22 386.553,516.053 366,500.5C 363.29,495.271 364.457,491.104 369.5,488C 400.586,487.985 431.586,487.318 462.5,486C 472.056,458.664 481.223,431.164 490,403.5C 491.118,399.544 493.618,397.211 497.5,396.5 Z"/></g>
<g><path style="opacity:1" fill="#342640" d="M 183.5,431.5 C 189.844,438.185 192.511,446.185 191.5,455.5C 192.132,465.047 189.132,473.047 182.5,479.5C 173.091,484.132 163.091,485.632 152.5,484C 149.261,483.378 146.261,482.212 143.5,480.5C 143.158,479.662 142.492,479.328 141.5,479.5C 138.26,476.033 135.76,472.033 134,467.5C 133.333,459.833 133.333,452.167 134,444.5C 135.381,437.962 138.881,432.962 144.5,429.5C 146.637,428.213 148.97,427.379 151.5,427C 158.833,426.333 166.167,426.333 173.5,427C 176.978,428.24 180.311,429.74 183.5,431.5 Z"/></g>
<g><path style="opacity:1" fill="#fcb63e" d="M 182.5,479.5 C 182.667,506.169 182.5,532.835 182,559.5C 177.315,573.427 167.815,578.261 153.5,574C 147.253,570.598 143.586,565.431 142.5,558.5C 142.169,532.328 142.502,506.328 143.5,480.5C 146.261,482.212 149.261,483.378 152.5,484C 163.091,485.632 173.091,484.132 182.5,479.5 Z"/></g>
<g><path style="opacity:1" fill="#7f9661" d="M 141.5,479.5 C 142.492,479.328 143.158,479.662 143.5,480.5C 142.502,506.328 142.169,532.328 142.5,558.5C 141.502,532.339 141.169,506.005 141.5,479.5 Z"/></g>
<g><path style="opacity:1" fill="#fde9d5" d="M 157.5,543.5 C 172.061,542.661 176.895,548.994 172,562.5C 163.848,569.753 156.848,568.753 151,559.5C 149.062,552.389 151.229,547.056 157.5,543.5 Z"/></g>
<g><path style="opacity:1" fill="#fb8ea3" d="M 495.5,709.5 C 495.5,736.5 495.5,763.5 495.5,790.5C 428.833,790.333 362.166,790.5 295.5,791C 280.681,795.148 270.181,804.314 264,818.5C 263.178,821.117 262.678,823.784 262.5,826.5C 261.515,830.634 261.182,834.968 261.5,839.5C 259.901,839.232 258.568,839.566 257.5,840.5C 255.096,834.23 250.762,829.73 244.5,827C 237.576,825.89 230.576,825.39 223.5,825.5C 209.042,822.072 198.375,826.739 191.5,839.5C 189.833,839.5 188.167,839.5 186.5,839.5C 186.102,821.796 186.602,804.129 188,786.5C 197.442,747.226 221.608,722.226 260.5,711.5C 263.487,711.002 266.487,710.502 269.5,710C 344.833,709.5 420.166,709.333 495.5,709.5 Z"/></g>
<g><path style="opacity:1" fill="#f97a8f" d="M 495.5,709.5 C 572.167,709.333 648.834,709.5 725.5,710C 729.114,710.936 732.78,711.436 736.5,711.5C 778.522,724.19 803.189,752.19 810.5,795.5C 810.5,810.167 810.5,824.833 810.5,839.5C 785.167,839.5 759.833,839.5 734.5,839.5C 734.5,839.167 734.5,838.833 734.5,838.5C 735.895,815.08 725.561,799.58 703.5,792C 634.204,790.517 564.87,790.017 495.5,790.5C 495.5,763.5 495.5,736.5 495.5,709.5 Z"/></g>
<g><path style="opacity:1" fill="#186775" d="M 736.5,710.5 C 775.608,717.105 799.775,739.771 809,778.5C 810.029,784.123 810.529,789.79 810.5,795.5C 803.189,752.19 778.522,724.19 736.5,711.5C 736.5,711.167 736.5,710.833 736.5,710.5 Z"/></g>
<g><path style="opacity:1" fill="#ffd23e" d="M 495.5,790.5 C 495.5,806.5 495.5,822.5 495.5,838.5C 417.833,838.5 340.167,838.5 262.5,838.5C 262.5,834.5 262.5,830.5 262.5,826.5C 262.678,823.784 263.178,821.117 264,818.5C 270.181,804.314 280.681,795.148 295.5,791C 362.166,790.5 428.833,790.333 495.5,790.5 Z"/></g>
<g><path style="opacity:1" fill="#fcb437" d="M 495.5,790.5 C 564.87,790.017 634.204,790.517 703.5,792C 725.561,799.58 735.895,815.08 734.5,838.5C 654.833,838.5 575.167,838.5 495.5,838.5C 495.5,822.5 495.5,806.5 495.5,790.5 Z"/></g>
<g><path style="opacity:1" fill="#342640" d="M 257.5,840.5 C 258.811,852.493 258.811,864.493 257.5,876.5C 256.379,878.741 255.213,881.075 254,883.5C 251.96,885.37 250.127,887.37 248.5,889.5C 240.584,892.003 232.418,893.003 224,892.5C 218.5,892.333 213,892.167 207.5,892C 204.94,891.616 202.606,890.783 200.5,889.5C 195.56,885.562 192.227,880.562 190.5,874.5C 190.209,862.783 190.542,851.116 191.5,839.5C 198.375,826.739 209.042,822.072 223.5,825.5C 230.576,825.39 237.576,825.89 244.5,827C 250.762,829.73 255.096,834.23 257.5,840.5 Z"/></g>
<g><path style="opacity:1" fill="#fba746" d="M 262.5,826.5 C 262.5,830.5 262.5,834.5 262.5,838.5C 340.167,838.5 417.833,838.5 495.5,838.5C 575.167,838.5 654.833,838.5 734.5,838.5C 734.5,838.833 734.5,839.167 734.5,839.5C 654.833,839.5 575.167,839.5 495.5,839.5C 417.5,839.5 339.5,839.5 261.5,839.5C 261.182,834.968 261.515,830.634 262.5,826.5 Z"/></g>
<g><path style="opacity:1" fill="#ec4865" d="M 186.5,839.5 C 188.167,839.5 189.833,839.5 191.5,839.5C 190.542,851.116 190.209,862.783 190.5,874.5C 189.817,876.176 188.483,876.843 186.5,876.5C 186.5,864.167 186.5,851.833 186.5,839.5 Z"/></g>
<g><path style="opacity:1" fill="#f34966" d="M 261.5,839.5 C 339.5,839.5 417.5,839.5 495.5,839.5C 495.5,851.5 495.5,863.5 495.5,875.5C 417.332,875.167 339.332,875.501 261.5,876.5C 260.167,876.5 258.833,876.5 257.5,876.5C 258.811,864.493 258.811,852.493 257.5,840.5C 258.568,839.566 259.901,839.232 261.5,839.5 Z"/></g>
<g><path style="opacity:1" fill="#f23f5a" d="M 495.5,839.5 C 575.167,839.5 654.833,839.5 734.5,839.5C 759.833,839.5 785.167,839.5 810.5,839.5C 810.5,851.833 810.5,864.167 810.5,876.5C 785.167,876.5 759.833,876.5 734.5,876.5C 655.002,875.501 575.335,875.167 495.5,875.5C 495.5,863.5 495.5,851.5 495.5,839.5 Z"/></g>
<g><path style="opacity:0.994" fill="#fb8ea3" d="M 101.5,846.5 C 101.5,893.167 101.5,939.833 101.5,986.5C 76.5,986.5 51.5,986.5 26.5,986.5C 17.5,986.5 8.5,986.5 -0.5,986.5C -0.5,964.167 -0.5,941.833 -0.5,919.5C 9.33672,877.501 35.6701,853.335 78.5,847C 86.1594,846.5 93.8261,846.334 101.5,846.5 Z"/></g>
<g><path style="opacity:0.992" fill="#fa8da2" d="M 895.5,846.5 C 941.053,844.01 973.22,863.344 992,904.5C 994.174,911.208 996.007,917.875 997.5,924.5C 997.5,945.167 997.5,965.833 997.5,986.5C 988.167,986.5 978.833,986.5 969.5,986.5C 944.833,986.5 920.167,986.5 895.5,986.5C 895.833,1067.34 895.499,1148 894.5,1228.5C 894.167,1101 894.5,973.666 895.5,846.5 Z"/></g>
<g><path style="opacity:1" fill="#fb8ea3" d="M 190.5,874.5 C 192.227,880.562 195.56,885.562 200.5,889.5C 200.333,920.502 200.5,951.502 201,982.5C 208.015,1000.06 220.182,1004.9 237.5,997C 243.434,992.633 246.934,986.8 248,979.5C 248.5,949.502 248.667,919.502 248.5,889.5C 250.127,887.37 251.96,885.37 254,883.5C 255.213,881.075 256.379,878.741 257.5,876.5C 258.833,876.5 260.167,876.5 261.5,876.5C 261.167,955.668 261.501,1034.67 262.5,1113.5C 266.432,1134.77 279.098,1146.77 300.5,1149.5C 365.331,1150.5 430.331,1150.83 495.5,1150.5C 495.5,1177.17 495.5,1203.83 495.5,1230.5C 422.833,1230.5 350.167,1230.5 277.5,1230.5C 233.079,1226.25 203.913,1202.91 190,1160.5C 188.615,1155.24 187.615,1149.91 187,1144.5C 186.5,1055.17 186.333,965.834 186.5,876.5C 188.483,876.843 189.817,876.176 190.5,874.5 Z"/></g>
<g><path style="opacity:1" fill="#fc9e61" d="M 495.5,875.5 C 575.335,875.167 655.002,875.501 734.5,876.5C 654.833,876.5 575.167,876.5 495.5,876.5C 417.833,876.5 340.167,876.5 262.5,876.5C 262.5,955.5 262.5,1034.5 262.5,1113.5C 261.501,1034.67 261.167,955.668 261.5,876.5C 339.332,875.501 417.332,875.167 495.5,875.5 Z"/></g>
<g><path style="opacity:1" fill="#ffd23e" d="M 495.5,876.5 C 495.5,967.5 495.5,1058.5 495.5,1149.5C 430.5,1149.5 365.5,1149.5 300.5,1149.5C 279.098,1146.77 266.432,1134.77 262.5,1113.5C 262.5,1034.5 262.5,955.5 262.5,876.5C 340.167,876.5 417.833,876.5 495.5,876.5 Z"/></g>
<g><path style="opacity:1" fill="#fcb437" d="M 495.5,876.5 C 575.167,876.5 654.833,876.5 734.5,876.5C 734.667,955.501 734.5,1034.5 734,1113.5C 730.48,1132.02 719.647,1143.85 701.5,1149C 632.834,1149.5 564.167,1149.67 495.5,1149.5C 495.5,1058.5 495.5,967.5 495.5,876.5 Z"/></g>
<g><path style="opacity:1" fill="#f97b8f" d="M 734.5,876.5 C 759.833,876.5 785.167,876.5 810.5,876.5C 810.5,964.833 810.5,1053.17 810.5,1141.5C 805.276,1184.76 781.943,1213.26 740.5,1227C 735.594,1228.48 730.594,1229.48 725.5,1230C 648.834,1230.5 572.167,1230.67 495.5,1230.5C 495.5,1203.83 495.5,1177.17 495.5,1150.5C 430.331,1150.83 365.331,1150.5 300.5,1149.5C 365.5,1149.5 430.5,1149.5 495.5,1149.5C 564.167,1149.67 632.834,1149.5 701.5,1149C 719.647,1143.85 730.48,1132.02 734,1113.5C 734.5,1034.5 734.667,955.501 734.5,876.5 Z"/></g>
<g><path style="opacity:1" fill="#2275ba" d="M 200.5,889.5 C 202.606,890.783 204.94,891.616 207.5,892C 213,892.167 218.5,892.333 224,892.5C 232.418,893.003 240.584,892.003 248.5,889.5C 248.667,919.502 248.5,949.502 248,979.5C 246.934,986.8 243.434,992.633 237.5,997C 220.182,1004.9 208.015,1000.06 201,982.5C 200.5,951.502 200.333,920.502 200.5,889.5 Z"/></g>
<g><path style="opacity:1" fill="#f9e9d8" d="M 219.5,962.5 C 227.914,961.02 234.081,964.02 238,971.5C 238.803,986.367 231.969,992.201 217.5,989C 211.198,984.435 209.031,978.268 211,970.5C 213.074,966.923 215.907,964.256 219.5,962.5 Z"/></g>
<g><path style="opacity:0.991" fill="#f34966" d="M 26.5,986.5 C 51.5,986.5 76.5,986.5 101.5,986.5C 101.333,1067.83 101.5,1149.17 102,1230.5C 102.375,1237 103.542,1243.33 105.5,1249.5C 58.2743,1217.09 32.1076,1172.09 27,1114.5C 26.5,1071.83 26.3333,1029.17 26.5,986.5 Z"/></g>
<g><path style="opacity:0.992" fill="#f34966" d="M 969.5,986.5 C 970.091,1027.5 970.258,1068.5 970,1109.5C 966.481,1169.57 939.981,1216.24 890.5,1249.5C 892.859,1242.71 894.192,1235.71 894.5,1228.5C 895.499,1148 895.833,1067.34 895.5,986.5C 920.167,986.5 944.833,986.5 969.5,986.5 Z"/></g>
<g><path style="opacity:1" fill="#476f7d" d="M 810.5,1141.5 C 810.461,1179.66 793.461,1207.16 759.5,1224C 750.1,1227.43 740.433,1229.77 730.5,1231C 579.333,1231.83 428.333,1231.67 277.5,1230.5C 350.167,1230.5 422.833,1230.5 495.5,1230.5C 572.167,1230.67 648.834,1230.5 725.5,1230C 730.594,1229.48 735.594,1228.48 740.5,1227C 781.943,1213.26 805.276,1184.76 810.5,1141.5 Z"/></g>
</svg>
